<svg width="392" height="80" viewBox="0 0 392 80" fill="none" xmlns="http://www.w3.org/2000/svg">
<path d="M17.4386 11.6251H373.944" stroke="#476A6F" stroke-width="2.85838" stroke-linecap="round"/>
<path d="M292.567 11.6251L373.943 11.6251" stroke="#364546" stroke-width="2.85838" stroke-linecap="round"/>
<circle cx="373.944" cy="11.6252" r="10.6724" fill="#364546" stroke="#364546" stroke-width="1.90559"/>
<circle cx="195.69" cy="11.6252" r="11.6252" fill="#476A6F"/>
<circle cx="17.4372" cy="11.6252" r="11.6252" fill="#476A6F"/>
<path d="M27.1557 31.5316L13.5779 45.1094" stroke="#476A6F" stroke-width="2.42799" stroke-linecap="round" stroke-linejoin="round"/>
<path d="M27.1543 31.5316L18.5139 56.2185L13.5765 45.1094L2.46741 40.172L27.1543 31.5316Z" stroke="#476A6F" stroke-width="2.42799" stroke-linecap="round" stroke-linejoin="round"/>
<path d="M195.002 49.2923V54.8755" stroke="#476A6F" stroke-width="2.74559" stroke-linecap="round" stroke-linejoin="round"/>
<path d="M195.002 71.6251V77.2083" stroke="#476A6F" stroke-width="2.74559" stroke-linecap="round" stroke-linejoin="round"/>
<path d="M185.132 53.3819L189.083 57.332" stroke="#476A6F" stroke-width="2.74559" stroke-linecap="round" stroke-linejoin="round"/>
<path d="M200.92 69.1685L204.87 73.1186" stroke="#476A6F" stroke-width="2.74559" stroke-linecap="round" stroke-linejoin="round"/>
<path d="M181.045 63.2502H186.629" stroke="#476A6F" stroke-width="2.74559" stroke-linecap="round" stroke-linejoin="round"/>
<path d="M203.376 63.2502H208.959" stroke="#476A6F" stroke-width="2.74559" stroke-linecap="round" stroke-linejoin="round"/>
<path d="M185.132 73.1186L189.083 69.1685" stroke="#476A6F" stroke-width="2.74559" stroke-linecap="round" stroke-linejoin="round"/>
<path d="M200.92 57.332L204.87 53.3819" stroke="#476A6F" stroke-width="2.74559" stroke-linecap="round" stroke-linejoin="round"/>
<path d="M385.717 34.5313L368.587 51.6612L360.8 43.8749" stroke="#364546" stroke-width="3.06319" stroke-linecap="round" stroke-linejoin="round"/>
</svg>
