<svg width="305" height="67" viewBox="0 0 305 67" fill="none" xmlns="http://www.w3.org/2000/svg">
<path d="M118.842 53V17.9456H129.883C132.492 17.9456 134.814 18.2851 136.851 18.964C138.888 19.6429 140.496 20.7685 141.675 22.3408C142.854 23.9131 143.444 26.0571 143.444 28.7728C143.444 31.3456 142.854 33.4717 141.675 35.1512C140.496 36.8307 138.906 38.0813 136.905 38.9032C134.904 39.7251 132.635 40.136 130.098 40.136H125.059V53H118.842ZM125.059 35.1512H129.615C134.761 35.1512 137.334 33.0251 137.334 28.7728C137.334 26.5573 136.655 25.0387 135.297 24.2168C133.975 23.3592 132.009 22.9304 129.401 22.9304H125.059V35.1512ZM150.038 53V17.9456H156.256V32.0424H170.46V17.9456H176.678V53H170.46V37.456H156.256V53H150.038ZM192.762 34.3472L191.529 38.6352H200.481L199.248 34.3472C198.676 32.4891 198.122 30.5773 197.586 28.612C197.086 26.6467 196.586 24.6992 196.085 22.7696H195.871C195.407 24.7349 194.906 26.7003 194.37 28.6656C193.87 30.5952 193.334 32.4891 192.762 34.3472ZM181.024 53L192.441 17.9456H199.73L211.147 53H204.608L201.874 43.5128H190.082L187.349 53H181.024ZM215.468 53V17.9456H221.686V53H215.468ZM240.833 53.6432C238.475 53.6432 236.188 53.1965 233.972 52.3032C231.793 51.4099 229.863 50.1413 228.184 48.4976L231.828 44.2632C233.079 45.4424 234.508 46.4072 236.116 47.1576C237.724 47.8723 239.332 48.2296 240.94 48.2296C242.941 48.2296 244.46 47.8187 245.496 46.9968C246.533 46.1749 247.051 45.0851 247.051 43.7272C247.051 42.2621 246.533 41.208 245.496 40.5648C244.496 39.9216 243.209 39.2605 241.637 38.5816L236.813 36.4912C235.67 35.9909 234.544 35.3477 233.436 34.5616C232.364 33.7755 231.471 32.7749 230.756 31.56C230.077 30.3451 229.738 28.88 229.738 27.1648C229.738 25.3067 230.238 23.6451 231.239 22.18C232.275 20.6792 233.669 19.5 235.42 18.6424C237.206 17.7491 239.243 17.3024 241.53 17.3024C243.567 17.3024 245.532 17.7133 247.426 18.5352C249.32 19.3213 250.946 20.3933 252.304 21.7512L249.141 25.7176C248.033 24.7885 246.854 24.056 245.604 23.52C244.389 22.984 243.031 22.716 241.53 22.716C239.886 22.716 238.546 23.0912 237.51 23.8416C236.509 24.5563 236.009 25.5568 236.009 26.8432C236.009 27.7365 236.259 28.4869 236.76 29.0944C237.296 29.6661 237.992 30.1664 238.85 30.5952C239.708 30.9883 240.619 31.3813 241.584 31.7744L246.354 33.7576C248.426 34.6509 250.124 35.8301 251.446 37.2952C252.768 38.7245 253.429 40.7077 253.429 43.2448C253.429 45.1387 252.929 46.8717 251.928 48.444C250.928 50.0163 249.481 51.2848 247.587 52.2496C245.729 53.1787 243.477 53.6432 240.833 53.6432ZM277.502 47.6936V37.5632H267.907V33.0608H277.502V22.9304H282.165V33.0608H291.759V37.5632H282.165V47.6936H277.502Z" fill="#7EB09B"/>
<path d="M53.4143 34.3864C56.4328 30.95 58.0319 26.4945 57.8877 21.9228C57.7435 17.3512 55.8666 13.0054 52.6374 9.76605C49.4083 6.52671 45.0684 4.63617 40.4973 4.47753C35.9261 4.31889 31.4656 5.90402 28.0196 8.91169L5.26863 31.6627C2.26095 35.1087 0.675823 39.5692 0.834463 44.1403C0.993104 48.7115 2.88365 53.0514 6.12298 56.2805C9.36231 59.5097 13.7081 61.3865 18.2798 61.5308C22.8514 61.675 27.3069 60.0758 30.7434 57.0573L53.4143 34.3864ZM30.7434 11.7355C33.3726 9.10632 36.9386 7.62923 40.6569 7.62923C44.3752 7.62923 47.9412 9.10632 50.5704 11.7355C53.1996 14.3648 54.6767 17.9308 54.6767 21.6491C54.6767 25.3673 53.1996 28.9333 50.5704 31.5626L40.9373 41.1957C36.0065 40.311 31.4643 37.9393 27.9202 34.3988C24.3762 30.8584 21.9999 26.3186 21.1102 21.3887L30.7434 11.7355ZM8.09248 54.2134C6.79053 52.9116 5.75776 51.3661 5.05315 49.6651C4.34853 47.9642 3.98587 46.1411 3.98587 44.2999C3.98587 42.4588 4.34853 40.6357 5.05315 38.9347C5.75776 37.2337 6.79053 35.6882 8.09248 34.3864L17.7657 24.7132C19.0883 29.4432 21.6076 33.7525 25.0805 37.2254C28.5534 40.6984 32.8627 43.2176 37.5927 44.5403L28.0196 54.2134C26.716 55.5305 25.1643 56.576 23.454 57.2895C21.7438 58.003 19.9091 58.3704 18.0561 58.3704C16.203 58.3704 14.3683 58.003 12.6581 57.2895C10.9479 56.576 9.39609 55.5305 8.09248 54.2134Z" fill="#7EB09B"/>
<path d="M38.6542 36.9899C39.8559 36.9899 39.4954 36.9899 47.7466 28.7387C48.6792 27.8085 49.419 26.7035 49.9238 25.4869C50.4287 24.2703 50.6885 22.9661 50.6885 21.649C50.6885 20.3318 50.4287 19.0276 49.9238 17.8111C49.419 16.5945 48.6792 15.4895 47.7466 14.5593C47.3695 14.1822 46.858 13.9703 46.3247 13.9703C45.7914 13.9703 45.2799 14.1822 44.9028 14.5593C44.5256 14.9364 44.3138 15.4479 44.3138 15.9813C44.3138 16.5146 44.5256 17.0261 44.9028 17.4032C46.0279 18.5297 46.6599 20.0568 46.6599 21.649C46.6599 23.2412 46.0279 24.7682 44.9028 25.8948L37.2523 33.6654C37.0031 33.9481 36.8388 34.2953 36.7781 34.6672C36.7174 35.0391 36.7629 35.4206 36.9093 35.7679C37.0557 36.1151 37.2972 36.414 37.6058 36.6301C37.9145 36.8463 38.2779 36.971 38.6542 36.9899Z" fill="#7EB09B"/>
<path d="M85.5981 33.0846C75.8048 29.1592 56.0579 33.0044 56.0579 43.679V51.6899C56.0579 58.4191 64.8498 63.7063 76.0852 63.7063C87.3205 63.7063 96.1125 58.4191 96.1125 51.6899V43.679C96.1125 39.1729 92.107 35.1273 85.5981 33.0846ZM71.2986 51.2894L85.3177 37.2703C100.538 42.8579 87.6009 53.973 71.2986 51.2894ZM80.8717 36.0686L66.8526 50.0877C51.5717 44.4801 64.6896 33.405 80.8717 36.0686ZM92.107 51.6899C92.107 55.4751 85.518 59.7008 76.0852 59.7008C66.6523 59.7008 60.0633 55.4751 60.0633 51.6899C60.0633 50.5283 59.7028 50.9089 62.0661 52.2507C68.3546 55.9758 77.5872 56.5766 84.797 54.5538C92.0069 52.5311 92.107 49.7873 92.107 51.6899Z" fill="#7EB09B"/>
</svg>
