<svg width="206" height="181" viewBox="0 0 206 181" fill="none" xmlns="http://www.w3.org/2000/svg">
<path d="M44.0728 171V147.528H52.1368C53.8648 147.528 55.4248 147.768 56.8168 148.248C58.2328 148.704 59.3608 149.484 60.2008 150.588C61.0408 151.692 61.4608 153.192 61.4608 155.088C61.4608 156.912 61.0408 158.412 60.2008 159.588C59.3608 160.764 58.2448 161.64 56.8528 162.216C55.4608 162.768 53.9368 163.044 52.2808 163.044H49.3648V171H44.0728ZM49.3648 158.832H51.9568C54.8368 158.832 56.2768 157.584 56.2768 155.088C56.2768 153.864 55.8928 153 55.1248 152.496C54.3568 151.992 53.2528 151.74 51.8128 151.74H49.3648V158.832ZM65.5181 171V147.528H70.8101V156.564H78.9101V147.528H84.2381V171H78.9101V161.208H70.8101V171H65.5181ZM95.2839 159.12L94.7079 161.28H99.7119L99.1719 159.12C98.8599 157.944 98.5359 156.696 98.1999 155.376C97.8879 154.056 97.5759 152.784 97.2639 151.56H97.1199C96.8319 152.808 96.5319 154.092 96.2199 155.412C95.9319 156.708 95.6199 157.944 95.2839 159.12ZM86.7879 171L94.1319 147.528H100.504L107.848 171H102.232L100.792 165.42H93.6279L92.1879 171H86.7879ZM110.413 171V147.528H115.705V171H110.413ZM128.405 171.432C126.869 171.432 125.333 171.144 123.797 170.568C122.285 169.992 120.929 169.152 119.729 168.048L122.753 164.412C123.593 165.132 124.529 165.72 125.561 166.176C126.593 166.632 127.589 166.86 128.549 166.86C129.653 166.86 130.469 166.656 130.997 166.248C131.549 165.84 131.825 165.288 131.825 164.592C131.825 163.848 131.513 163.308 130.889 162.972C130.289 162.612 129.473 162.216 128.441 161.784L125.381 160.488C124.589 160.152 123.833 159.708 123.113 159.156C122.393 158.58 121.805 157.872 121.349 157.032C120.893 156.192 120.665 155.208 120.665 154.08C120.665 152.784 121.013 151.608 121.709 150.552C122.429 149.496 123.413 148.656 124.661 148.032C125.933 147.408 127.385 147.096 129.017 147.096C130.361 147.096 131.705 147.36 133.049 147.888C134.393 148.416 135.569 149.184 136.577 150.192L133.877 153.54C133.109 152.94 132.341 152.484 131.573 152.172C130.805 151.836 129.953 151.668 129.017 151.668C128.105 151.668 127.373 151.86 126.821 152.244C126.293 152.604 126.029 153.12 126.029 153.792C126.029 154.512 126.365 155.052 127.037 155.412C127.733 155.772 128.585 156.156 129.593 156.564L132.617 157.788C134.033 158.364 135.161 159.156 136.001 160.164C136.841 161.172 137.261 162.504 137.261 164.16C137.261 165.456 136.913 166.656 136.217 167.76C135.521 168.864 134.513 169.752 133.193 170.424C131.873 171.096 130.277 171.432 128.405 171.432ZM153.24 167.616V160.992H146.904V157.248H153.24V150.624H157.128V157.248H163.464V160.992H157.128V167.616H153.24Z" fill="#E4E4E7"/>
<path d="M113.633 64.648C120.155 57.2228 123.611 47.5958 123.299 37.7178C122.987 27.8398 118.932 18.4497 111.955 11.4504C104.978 4.45116 95.6003 0.36623 85.7234 0.0234539C75.8464 -0.319323 66.2085 3.10569 58.7628 9.60441L9.60441 58.7628C3.10569 66.2085 -0.319323 75.8464 0.0234539 85.7234C0.36623 95.6003 4.45116 104.978 11.4504 111.955C18.4497 118.932 27.8398 122.987 37.7178 123.299C47.5958 123.611 57.2228 120.155 64.648 113.633L113.633 64.648ZM64.648 15.7059C70.329 10.0249 78.0341 6.83338 86.0683 6.83338C94.1024 6.83338 101.808 10.0249 107.489 15.7059C113.17 21.387 116.361 29.0921 116.361 37.1262C116.361 45.1604 113.17 52.8655 107.489 58.5465L86.6741 79.3609C76.0201 77.4494 66.2057 72.3248 58.5481 64.6748C50.8904 57.0249 45.7559 47.2157 43.8336 36.5637L64.648 15.7059ZM15.7059 107.489C12.8928 104.676 10.6613 101.336 9.13882 97.6609C7.61635 93.9856 6.83274 90.0464 6.83274 86.0683C6.83274 82.0901 7.61635 78.1509 9.13882 74.4756C10.6613 70.8003 12.8928 67.4609 15.7059 64.648L36.6069 43.747C39.4647 53.9672 44.9082 63.2784 52.4121 70.7823C59.9161 78.2863 69.2273 83.7297 79.4475 86.5875L58.7628 107.489C55.9461 110.334 52.5932 112.593 48.8979 114.135C45.2026 115.677 41.2384 116.47 37.2344 116.47C33.2304 116.47 29.2662 115.677 25.5709 114.135C21.8756 112.593 18.5227 110.334 15.7059 107.489Z" fill="#E4E4E7"/>
<path d="M81.7416 70.2731C84.338 70.2731 83.5591 70.2731 101.388 52.4445C103.403 50.4347 105.001 48.047 106.092 45.4184C107.183 42.7898 107.744 39.9718 107.744 37.1258C107.744 34.2798 107.183 31.4618 106.092 28.8332C105.001 26.2045 103.403 23.8169 101.388 21.8071C100.573 20.9922 99.4677 20.5344 98.3153 20.5344C97.1629 20.5344 96.0577 20.9922 95.2429 21.8071C94.428 22.6219 93.9703 23.7271 93.9703 24.8795C93.9703 26.0318 94.428 27.137 95.2429 27.9519C97.674 30.386 99.0395 33.6856 99.0395 37.1258C99.0395 40.566 97.674 43.8656 95.2429 46.2997L78.7125 63.0897C78.1741 63.7005 77.8189 64.4509 77.6878 65.2545C77.5567 66.0581 77.655 66.8824 77.9714 67.6326C78.2877 68.3829 78.8094 69.0286 79.4763 69.4957C80.1432 69.9628 80.9284 70.2323 81.7416 70.2731Z" fill="#E4E4E7"/>
<path d="M183.174 61.8349C162.013 53.3534 119.345 61.6618 119.345 84.7265V102.036C119.345 116.576 138.342 128 162.619 128C186.895 128 205.892 116.576 205.892 102.036V84.7265C205.892 74.99 197.237 66.2488 183.174 61.8349ZM152.276 101.17L182.568 70.879C215.455 82.9523 187.501 106.969 152.276 101.17ZM172.961 68.2827L142.67 98.5739C109.652 86.4574 137.996 62.5273 172.961 68.2827ZM197.237 102.036C197.237 110.214 183 119.345 162.619 119.345C142.237 119.345 128 110.214 128 102.036C128 99.526 127.221 100.348 132.327 103.247C145.915 111.296 165.864 112.594 181.443 108.224C197.021 103.853 197.237 97.9248 197.237 102.036Z" fill="#E4E4E7"/>
</svg>
