<svg width="204" height="45" viewBox="0 0 204 45" fill="none" xmlns="http://www.w3.org/2000/svg">
<path d="M83.3181 35V11.456H90.7341C92.4861 11.456 94.0461 11.684 95.4141 12.14C96.7821 12.596 97.8621 13.352 98.6541 14.408C99.4461 15.464 99.8421 16.904 99.8421 18.728C99.8421 20.456 99.4461 21.884 98.6541 23.012C97.8621 24.14 96.7941 24.98 95.4501 25.532C94.1061 26.084 92.5821 26.36 90.8781 26.36H87.4941V35H83.3181ZM87.4941 23.012H90.5541C94.0101 23.012 95.7381 21.584 95.7381 18.728C95.7381 17.24 95.2821 16.22 94.3701 15.668C93.4821 15.092 92.1621 14.804 90.4101 14.804H87.4941V23.012ZM104.271 35V11.456H108.447V20.924H117.987V11.456H122.163V35H117.987V24.56H108.447V35H104.271ZM132.966 22.472L132.138 25.352H138.15L137.322 22.472C136.938 21.224 136.566 19.94 136.206 18.62C135.87 17.3 135.534 15.992 135.198 14.696H135.054C134.742 16.016 134.406 17.336 134.046 18.656C133.71 19.952 133.35 21.224 132.966 22.472ZM125.082 35L132.75 11.456H137.646L145.314 35H140.922L139.086 28.628H131.166L129.33 35H125.082ZM148.217 35V11.456H152.393V35H148.217ZM165.253 35.432C163.669 35.432 162.133 35.132 160.645 34.532C159.181 33.932 157.885 33.08 156.757 31.976L159.205 29.132C160.045 29.924 161.005 30.572 162.085 31.076C163.165 31.556 164.245 31.796 165.325 31.796C166.669 31.796 167.689 31.52 168.385 30.968C169.081 30.416 169.429 29.684 169.429 28.772C169.429 27.788 169.081 27.08 168.385 26.648C167.713 26.216 166.849 25.772 165.793 25.316L162.553 23.912C161.785 23.576 161.029 23.144 160.285 22.616C159.565 22.088 158.965 21.416 158.485 20.6C158.029 19.784 157.801 18.8 157.801 17.648C157.801 16.4 158.137 15.284 158.809 14.3C159.505 13.292 160.441 12.5 161.617 11.924C162.817 11.324 164.185 11.024 165.721 11.024C167.089 11.024 168.409 11.3 169.681 11.852C170.953 12.38 172.045 13.1 172.957 14.012L170.833 16.676C170.089 16.052 169.297 15.56 168.457 15.2C167.641 14.84 166.729 14.66 165.721 14.66C164.617 14.66 163.717 14.912 163.021 15.416C162.349 15.896 162.013 16.568 162.013 17.432C162.013 18.032 162.181 18.536 162.517 18.944C162.877 19.328 163.345 19.664 163.921 19.952C164.497 20.216 165.109 20.48 165.757 20.744L168.961 22.076C170.353 22.676 171.493 23.468 172.381 24.452C173.269 25.412 173.713 26.744 173.713 28.448C173.713 29.72 173.377 30.884 172.705 31.94C172.033 32.996 171.061 33.848 169.789 34.496C168.541 35.12 167.029 35.432 165.253 35.432ZM189.881 31.436V24.632H183.437V21.608H189.881V14.804H193.013V21.608H199.457V24.632H193.013V31.436H189.881Z" fill="#7EB09B"/>
<path d="M35.3221 23.0954C37.3494 20.7873 38.4235 17.7948 38.3266 14.7243C38.2297 11.6538 36.9692 8.73495 34.8003 6.55928C32.6315 4.38361 29.7167 3.11384 26.6465 3.00729C23.5763 2.90074 20.5804 3.96538 18.266 5.98546L2.98546 21.266C0.965381 23.5804 -0.099259 26.5763 0.00729048 29.6465C0.11384 32.7167 1.38361 35.6315 3.55928 37.8003C5.73495 39.9692 8.65379 41.2297 11.7243 41.3266C14.7948 41.4235 17.7873 40.3494 20.0954 38.3221L35.3221 23.0954ZM20.0954 7.88208C21.8612 6.11618 24.2563 5.12411 26.7537 5.12411C29.251 5.12411 31.6461 6.11618 33.412 7.88208C35.1779 9.64797 36.17 12.043 36.17 14.5404C36.17 17.0378 35.1779 19.4328 33.412 21.1987L26.942 27.6687C23.6303 27.0746 20.5796 25.4816 18.1992 23.1037C15.8189 20.7258 14.2229 17.6767 13.6253 14.3655L20.0954 7.88208ZM4.88208 36.412C4.00763 35.5377 3.31398 34.4996 2.84073 33.3572C2.36749 32.2147 2.12391 30.9903 2.12391 29.7537C2.12391 28.5171 2.36749 27.2926 2.84073 26.1502C3.31398 25.0077 4.00763 23.9697 4.88208 23.0954L11.379 16.5984C12.2673 19.7753 13.9594 22.6696 16.2919 25.0022C18.6245 27.3347 21.5188 29.0268 24.6957 29.9151L18.266 36.412C17.3904 37.2966 16.3482 37.9988 15.1995 38.478C14.0509 38.9572 12.8186 39.204 11.574 39.204C10.3294 39.204 9.09717 38.9572 7.94852 38.478C6.79987 37.9988 5.75763 37.2966 4.88208 36.412Z" fill="#7EB09B"/>
<path d="M25.4086 24.844C26.2157 24.844 25.9736 24.844 31.5155 19.3021C32.1418 18.6773 32.6387 17.9351 32.9778 17.1181C33.3168 16.301 33.4914 15.425 33.4914 14.5404C33.4914 13.6557 33.3168 12.7798 32.9778 11.9627C32.6387 11.1456 32.1418 10.4034 31.5155 9.77864C31.2622 9.52535 30.9186 9.38306 30.5604 9.38306C30.2022 9.38306 29.8587 9.52535 29.6054 9.77864C29.3521 10.0319 29.2098 10.3755 29.2098 10.7337C29.2098 11.0919 29.3521 11.4354 29.6054 11.6887C30.3611 12.4453 30.7855 13.471 30.7855 14.5404C30.7855 15.6097 30.3611 16.6354 29.6054 17.392L24.4671 22.6111C24.2997 22.8009 24.1893 23.0342 24.1485 23.284C24.1078 23.5337 24.1383 23.79 24.2367 24.0232C24.335 24.2564 24.4972 24.4571 24.7045 24.6023C24.9118 24.7475 25.1559 24.8313 25.4086 24.844Z" fill="#7EB09B"/>
<path d="M56.9381 22.221C50.3605 19.5845 37.0977 22.1671 37.0977 29.3366V34.7171C37.0977 39.2367 43.0027 42.7878 50.5488 42.7878C58.0949 42.7878 64 39.2367 64 34.7171V29.3366C64 26.3101 61.3098 23.593 56.9381 22.221ZM47.334 34.4481L56.7498 25.0322C66.9727 28.7851 58.2833 36.2505 47.334 34.4481ZM53.7637 24.2252L44.3478 33.641C34.0846 29.8747 42.8951 22.4362 53.7637 24.2252ZM61.3098 34.7171C61.3098 37.2594 56.8843 40.0976 50.5488 40.0976C44.2133 40.0976 39.7879 37.2594 39.7879 34.7171C39.7879 33.9369 39.5458 34.1925 41.133 35.0937C45.3567 37.5956 51.5577 37.9992 56.4001 36.6406C61.2425 35.282 61.3098 33.4392 61.3098 34.7171Z" fill="#7EB09B"/>
</svg>
