<svg width="26" height="29" viewBox="0 0 26 29" fill="none" xmlns="http://www.w3.org/2000/svg">
<path d="M17.6432 21L14.0832 15.28H9.7832V21H7.9232V7.24H14.4032C15.9499 7.24 17.1432 7.58667 17.9832 8.28C18.8232 8.97333 19.2432 9.94 19.2432 11.18C19.2432 12.1933 18.9432 13.0533 18.3432 13.76C17.7565 14.4533 16.9365 14.8933 15.8832 15.08L19.8032 21H17.6432ZM17.3832 11.2C17.3832 10.4 17.1099 9.79333 16.5632 9.38C16.0165 8.95333 15.2299 8.74 14.2032 8.74H9.7832V13.82H14.2832C15.2699 13.82 16.0299 13.5933 16.5632 13.14C17.1099 12.6733 17.3832 12.0267 17.3832 11.2Z" fill="#2C5CA6"/>
<path d="M1 6C1 3.79086 2.79086 2 5 2H21C23.2091 2 25 3.79086 25 6V22C25 24.2091 23.2091 26 21 26H5C2.79086 26 1 24.2091 1 22V6Z" stroke="#2C5CA6" stroke-width="2"/>
</svg>
