<svg width="68" height="61" viewBox="0 0 68 61" fill="none" xmlns="http://www.w3.org/2000/svg">
<rect width="68" height="60.6087" rx="11.0198" fill="#859595"/>
<path d="M36.0362 44.3016C34.0682 44.3016 32.2802 43.8336 30.6722 42.8976C29.0642 41.9616 27.7802 40.5936 26.8202 38.7936C25.8842 36.9696 25.4162 34.7616 25.4162 32.1696C25.4162 29.6016 25.8962 27.4056 26.8562 25.5816C27.8402 23.7336 29.1482 22.3296 30.7802 21.3696C32.4122 20.3856 34.2122 19.8936 36.1802 19.8936C37.6682 19.8936 38.9882 20.1936 40.1402 20.7936C41.2922 21.3936 42.2402 22.0896 42.9842 22.8816L40.7522 25.5816C40.1522 24.9576 39.4802 24.4656 38.7362 24.1056C38.0162 23.7216 37.2002 23.5296 36.2882 23.5296C35.0162 23.5296 33.8762 23.8776 32.8682 24.5736C31.8842 25.2456 31.1042 26.2176 30.5282 27.4896C29.9762 28.7616 29.7002 30.2856 29.7002 32.0616C29.7002 34.7496 30.2882 36.8616 31.4642 38.3976C32.6402 39.9096 34.2122 40.6656 36.1802 40.6656C37.2362 40.6656 38.1722 40.4496 38.9882 40.0176C39.8042 39.5616 40.5482 38.9736 41.2202 38.2536L43.4522 40.8816C42.4922 41.9856 41.3882 42.8376 40.1402 43.4376C38.9162 44.0136 37.5482 44.3016 36.0362 44.3016Z" fill="#F4F4F5"/>
</svg>
